<svg xmlns="http://www.w3.org/2000/svg" xmlns:xlink="http://www.w3.org/1999/xlink" width="2000" zoomAndPan="magnify" viewBox="0 0 1500 809.999993" height="1080" preserveAspectRatio="xMidYMid meet" version="1.0"><defs><clipPath id="258cee0827"><path d="M 0 0 L 298.609375 0 L 298.609375 355.875 L 0 355.875 Z M 0 0 " clip-rule="nonzero"/></clipPath><clipPath id="07e6820d67"><path d="M 0 0 L 221.171875 0 L 221.171875 194.570312 L 0 194.570312 Z M 0 0 " clip-rule="nonzero"/></clipPath><clipPath id="13ff946797"><path d="M 1113.085938 367.636719 L 1500 367.636719 L 1500 810 L 1113.085938 810 Z M 1113.085938 367.636719 " clip-rule="nonzero"/></clipPath><clipPath id="394b5c2f54"><path d="M 1203.527344 570.625 L 1500 570.625 L 1500 810 L 1203.527344 810 Z M 1203.527344 570.625 " clip-rule="nonzero"/></clipPath><clipPath id="66522350ec"><path d="M 0 547.128906 L 352.242188 547.128906 L 352.242188 810 L 0 810 Z M 0 547.128906 " clip-rule="nonzero"/></clipPath><clipPath id="17e4170e7e"><path d="M 0 624.566406 L 190.933594 624.566406 L 190.933594 810 L 0 810 Z M 0 624.566406 " clip-rule="nonzero"/></clipPath><clipPath id="3d91f62c11"><path d="M 1167 0 L 1500 0 L 1500 302 L 1167 302 Z M 1167 0 " clip-rule="nonzero"/></clipPath><clipPath id="467d61ec73"><path d="M 1569.4375 -41.257812 L 1580.910156 302.046875 L 1178.386719 315.5 L 1166.914062 -27.808594 Z M 1569.4375 -41.257812 " clip-rule="nonzero"/></clipPath><clipPath id="3a464a93f5"><path d="M 1569.4375 -41.257812 L 1580.910156 302.046875 L 1178.386719 315.5 L 1166.914062 -27.808594 Z M 1569.4375 -41.257812 " clip-rule="nonzero"/></clipPath><clipPath id="92ab65450c"><path d="M 1327 0 L 1500 0 L 1500 225 L 1327 225 Z M 1327 0 " clip-rule="nonzero"/></clipPath><clipPath id="cf73671108"><path d="M 1337.011719 232.71875 L 1327.941406 -38.628906 L 1568.558594 -46.671875 L 1577.628906 224.675781 Z M 1337.011719 232.71875 " clip-rule="nonzero"/></clipPath><clipPath id="683ab7d599"><path d="M 1337.011719 232.71875 L 1327.941406 -38.628906 L 1568.558594 -46.671875 L 1577.628906 224.675781 Z M 1337.011719 232.71875 " clip-rule="nonzero"/></clipPath></defs><rect x="-150" width="1800" fill="#ffffff" y="-80.999999" height="971.999992" fill-opacity="1"/><rect x="-150" width="1800" fill="#ffffff" y="-80.999999" height="971.999992" fill-opacity="1"/><rect x="-150" width="1800" fill="#ffffff" y="-80.999999" height="971.999992" fill-opacity="1"/><g clip-path="url(#258cee0827)"><path fill="#ff7b6c" d="M -44.261719 355.742188 C -44.875 354.84375 -44.765625 354.050781 -44.765625 353.28125 C -44.769531 221.265625 -44.769531 89.25 -44.765625 -42.761719 C -44.765625 -46.367188 -44.757812 -46.367188 -41.167969 -46.367188 C 71.25 -46.367188 183.664062 -46.367188 296.078125 -46.351562 C 296.832031 -46.351562 297.914062 -46.738281 298.253906 -46.101562 C 298.644531 -45.375 297.820312 -44.574219 297.347656 -43.917969 C 294.453125 -39.882812 292.152344 -35.476562 289.472656 -31.308594 C 286.867188 -27.25 284.421875 -23.0625 281.636719 -19.132812 C 279.683594 -16.386719 277.734375 -13.628906 275.425781 -11.105469 C 272.503906 -7.910156 270.035156 -4.300781 267.328125 -0.898438 C 263.679688 3.691406 259.289062 7.539062 254.894531 11.367188 C 252.5625 13.398438 250.257812 15.503906 247.683594 17.191406 C 243.816406 19.730469 239.980469 22.335938 235.972656 24.671875 C 231.234375 27.4375 226.328125 29.90625 221.316406 32.046875 C 216.355469 34.167969 211.394531 36.316406 206.3125 38.199219 C 199.164062 40.851562 192.296875 44.238281 185.183594 46.980469 C 181.019531 48.585938 176.886719 50.320312 172.652344 51.699219 C 168.207031 53.152344 164.105469 55.390625 159.699219 56.839844 C 155.488281 58.222656 151.625 60.40625 147.484375 61.882812 C 141.753906 63.925781 136.261719 66.523438 130.703125 68.929688 C 125.144531 71.335938 119.65625 73.964844 114.265625 76.796875 C 110.617188 78.714844 107.121094 80.855469 103.613281 82.964844 C 99.753906 85.289062 96.074219 87.925781 92.523438 90.753906 C 87.164062 95.027344 82.007812 99.53125 77.175781 104.375 C 73.585938 107.96875 70.230469 111.800781 66.960938 115.699219 C 62.550781 120.957031 58.828125 126.714844 55.441406 132.632812 C 52.089844 138.488281 49.28125 144.652344 47.03125 151.0625 C 44.882812 157.191406 42.902344 163.386719 40.910156 169.5625 C 39.703125 173.324219 38.648438 177.195312 37.742188 181.074219 C 37.394531 182.574219 36.757812 184.011719 36.390625 185.511719 C 34.667969 192.609375 33.496094 199.828125 31.507812 206.871094 C 30.847656 209.207031 30.636719 211.667969 30.027344 214.019531 C 29.078125 217.703125 28.113281 221.398438 26.871094 224.988281 C 25.421875 229.160156 24.648438 233.511719 23.152344 237.667969 C 20.527344 244.945312 18.613281 252.449219 15.957031 259.730469 C 14.300781 264.253906 12.300781 268.644531 10.832031 273.21875 C 9 278.925781 6.351562 284.273438 3.902344 289.691406 C 1.570312 294.839844 -0.976562 299.90625 -3.691406 304.890625 C -7.53125 311.945312 -12.234375 318.386719 -16.953125 324.824219 C -19.164062 327.835938 -21.699219 330.609375 -23.902344 333.632812 C -29.820312 341.742188 -37.09375 348.570312 -44.261719 355.742188 Z M -44.261719 355.742188 " fill-opacity="1" fill-rule="nonzero"/></g><g clip-path="url(#07e6820d67)"><path fill="#ff9e91" d="M -50.328125 -46.167969 L 221.171875 -46.167969 C 216.890625 14.984375 171.769531 1.742188 144.542969 19.269531 C 116.925781 36.800781 131.707031 78.867188 96.699219 106.136719 C 62.082031 133.792969 37.1875 126.390625 16.960938 133.792969 C -3.265625 141.191406 -7.15625 168.847656 -20.378906 182.871094 C -31.660156 194.558594 -50.328125 194.558594 -50.328125 194.558594 Z M -50.328125 -46.167969 " fill-opacity="1" fill-rule="nonzero"/></g><g clip-path="url(#13ff946797)"><path fill="#ff7b6c" d="M 1543.550781 367.796875 C 1544.320312 368.921875 1544.183594 369.917969 1544.183594 370.882812 C 1544.1875 536.335938 1544.1875 701.789062 1544.183594 867.242188 C 1544.183594 871.757812 1544.171875 871.757812 1539.664062 871.757812 C 1398.53125 871.757812 1257.402344 871.757812 1116.265625 871.742188 C 1115.324219 871.742188 1113.960938 872.222656 1113.535156 871.425781 C 1113.046875 870.515625 1114.082031 869.511719 1114.671875 868.691406 C 1118.304688 863.632812 1121.195312 858.109375 1124.558594 852.886719 C 1127.828125 847.800781 1130.898438 842.554688 1134.398438 837.628906 C 1136.847656 834.1875 1139.296875 830.726562 1142.195312 827.566406 C 1145.867188 823.5625 1148.964844 819.039062 1152.359375 814.773438 C 1156.941406 809.023438 1162.453125 804.199219 1167.972656 799.402344 C 1170.898438 796.855469 1173.792969 794.21875 1177.023438 792.101562 C 1181.882812 788.917969 1186.699219 785.65625 1191.726562 782.726562 C 1197.675781 779.257812 1203.835938 776.167969 1210.125 773.484375 C 1216.355469 770.824219 1222.585938 768.132812 1228.964844 765.773438 C 1237.9375 762.449219 1246.558594 758.203125 1255.492188 754.765625 C 1260.71875 752.757812 1265.90625 750.582031 1271.222656 748.855469 C 1276.804688 747.03125 1281.953125 744.226562 1287.484375 742.410156 C 1292.773438 740.675781 1297.621094 737.941406 1302.820312 736.089844 C 1310.015625 733.527344 1316.910156 730.273438 1323.890625 727.257812 C 1330.867188 724.242188 1337.757812 720.949219 1344.523438 717.398438 C 1349.105469 714.996094 1353.496094 712.3125 1357.898438 709.667969 C 1362.746094 706.753906 1367.367188 703.449219 1371.820312 699.902344 C 1378.550781 694.546875 1385.023438 688.90625 1391.09375 682.835938 C 1395.597656 678.332031 1399.8125 673.527344 1403.914062 668.640625 C 1409.449219 662.050781 1414.121094 654.839844 1418.375 647.417969 C 1422.582031 640.082031 1426.113281 632.355469 1428.933594 624.324219 C 1431.628906 616.640625 1434.121094 608.875 1436.621094 601.136719 C 1438.136719 596.421875 1439.457031 591.566406 1440.597656 586.707031 C 1441.035156 584.828125 1441.832031 583.027344 1442.292969 581.148438 C 1444.460938 572.253906 1445.929688 563.203125 1448.425781 554.375 C 1449.253906 551.449219 1449.515625 548.363281 1450.28125 545.414062 C 1451.476562 540.800781 1452.683594 536.167969 1454.246094 531.667969 C 1456.0625 526.441406 1457.035156 520.988281 1458.914062 515.78125 C 1462.207031 506.660156 1464.609375 497.253906 1467.949219 488.125 C 1470.023438 482.460938 1472.535156 476.957031 1474.382812 471.226562 C 1476.679688 464.070312 1480.007812 457.371094 1483.082031 450.578125 C 1486.007812 444.125 1489.207031 437.773438 1492.613281 431.527344 C 1497.4375 422.691406 1503.339844 414.617188 1509.265625 406.546875 C 1512.039062 402.769531 1515.226562 399.292969 1517.988281 395.507812 C 1525.421875 385.34375 1534.546875 376.785156 1543.550781 367.796875 Z M 1543.550781 367.796875 " fill-opacity="1" fill-rule="nonzero"/></g><g clip-path="url(#394b5c2f54)"><path fill="#ff9e91" d="M 1544.027344 872.113281 L 1203.527344 872.113281 C 1208.890625 795.523438 1265.480469 812.109375 1299.625 790.160156 C 1334.261719 768.207031 1315.726562 715.523438 1359.628906 681.375 C 1403.046875 646.738281 1434.265625 656.007812 1459.632812 646.738281 C 1485 637.46875 1489.878906 602.835938 1506.464844 585.273438 C 1520.609375 570.636719 1544.027344 570.636719 1544.027344 570.636719 Z M 1544.027344 872.113281 " fill-opacity="1" fill-rule="nonzero"/></g><g clip-path="url(#66522350ec)"><path fill="#ff7b6c" d="M 352.109375 890 C 351.210938 890.613281 350.417969 890.503906 349.648438 890.503906 C 217.632812 890.511719 85.621094 890.511719 -46.394531 890.503906 C -50 890.503906 -50 890.496094 -50 886.90625 C -50 774.488281 -50 662.078125 -49.984375 549.660156 C -49.984375 548.910156 -50.371094 547.824219 -49.734375 547.484375 C -49.007812 547.097656 -48.207031 547.921875 -47.550781 548.390625 C -43.515625 551.285156 -39.109375 553.589844 -34.941406 556.265625 C -30.882812 558.871094 -26.695312 561.316406 -22.765625 564.105469 C -20.019531 566.054688 -17.261719 568.003906 -14.738281 570.3125 C -11.542969 573.238281 -7.933594 575.707031 -4.53125 578.410156 C 0.0585938 582.058594 3.90625 586.449219 7.734375 590.847656 C 9.765625 593.175781 11.871094 595.484375 13.558594 598.054688 C 16.097656 601.925781 18.703125 605.761719 21.039062 609.765625 C 23.804688 614.503906 26.273438 619.414062 28.414062 624.421875 C 30.535156 629.386719 32.683594 634.347656 34.566406 639.429688 C 37.21875 646.574219 40.605469 653.441406 43.347656 660.558594 C 44.953125 664.71875 46.6875 668.851562 48.066406 673.089844 C 49.519531 677.535156 51.757812 681.636719 53.207031 686.039062 C 54.589844 690.25 56.773438 694.117188 58.25 698.253906 C 60.296875 703.984375 62.890625 709.480469 65.296875 715.039062 C 67.703125 720.59375 70.332031 726.085938 73.167969 731.472656 C 75.082031 735.121094 77.222656 738.621094 79.332031 742.125 C 81.65625 745.984375 84.292969 749.667969 87.125 753.214844 C 91.398438 758.574219 95.898438 763.730469 100.742188 768.566406 C 104.335938 772.15625 108.167969 775.511719 112.066406 778.78125 C 117.328125 783.1875 123.082031 786.910156 129 790.296875 C 134.855469 793.648438 141.019531 796.460938 147.429688 798.707031 C 153.558594 800.855469 159.753906 802.835938 165.929688 804.828125 C 169.691406 806.039062 173.566406 807.089844 177.445312 807.996094 C 178.941406 808.34375 180.378906 808.980469 181.878906 809.347656 C 188.976562 811.074219 196.199219 812.246094 203.242188 814.234375 C 205.574219 814.890625 208.035156 815.101562 210.390625 815.710938 C 214.070312 816.664062 217.765625 817.625 221.355469 818.871094 C 225.53125 820.316406 229.882812 821.089844 234.035156 822.589844 C 241.3125 825.210938 248.816406 827.125 256.097656 829.785156 C 260.621094 831.4375 265.011719 833.4375 269.585938 834.90625 C 275.292969 836.738281 280.640625 839.390625 286.058594 841.839844 C 291.207031 844.167969 296.277344 846.714844 301.257812 849.429688 C 308.3125 853.269531 314.753906 857.972656 321.191406 862.691406 C 324.203125 864.902344 326.976562 867.441406 330 869.640625 C 338.109375 875.5625 344.9375 882.832031 352.109375 890 Z M 352.109375 890 " fill-opacity="1" fill-rule="nonzero"/></g><g clip-path="url(#17e4170e7e)"><path fill="#ff9e91" d="M -49.804688 896.066406 L -49.804688 624.566406 C 11.351562 628.84375 -1.890625 673.964844 15.636719 701.195312 C 33.164062 728.808594 75.234375 714.03125 102.5 749.035156 C 130.15625 783.65625 122.753906 808.546875 130.15625 828.773438 C 137.558594 849 165.214844 852.890625 179.238281 866.117188 C 190.921875 877.394531 190.921875 896.066406 190.921875 896.066406 Z M -49.804688 896.066406 " fill-opacity="1" fill-rule="nonzero"/></g><g clip-path="url(#3d91f62c11)"><g clip-path="url(#467d61ec73)"><g clip-path="url(#3a464a93f5)"><path fill="#ff7b6c" d="M 1167.066406 -27.183594 C 1167.945312 -27.828125 1168.738281 -27.742188 1169.511719 -27.769531 C 1301.449219 -32.183594 1433.390625 -36.59375 1565.332031 -41 C 1568.933594 -41.117188 1568.933594 -41.109375 1569.054688 -37.523438 C 1572.808594 74.832031 1576.5625 187.179688 1580.304688 299.535156 C 1580.328125 300.285156 1580.75 301.359375 1580.125 301.71875 C 1579.414062 302.132812 1578.585938 301.335938 1577.914062 300.882812 C 1573.785156 298.128906 1569.304688 295.972656 1565.046875 293.4375 C 1560.90625 290.96875 1556.640625 288.664062 1552.617188 286.007812 C 1549.808594 284.152344 1546.984375 282.292969 1544.386719 280.074219 C 1541.09375 277.253906 1537.40625 274.910156 1533.914062 272.320312 C 1529.207031 268.824219 1525.214844 264.566406 1521.242188 260.300781 C 1519.132812 258.039062 1516.953125 255.804688 1515.179688 253.289062 C 1512.511719 249.507812 1509.78125 245.761719 1507.3125 241.835938 C 1504.390625 237.191406 1501.757812 232.367188 1499.453125 227.433594 C 1497.164062 222.546875 1494.855469 217.65625 1492.800781 212.640625 C 1489.914062 205.585938 1486.296875 198.835938 1483.320312 191.820312 C 1481.578125 187.710938 1479.707031 183.640625 1478.183594 179.453125 C 1476.585938 175.058594 1474.210938 171.03125 1472.617188 166.679688 C 1471.089844 162.515625 1468.78125 158.726562 1467.167969 154.640625 C 1464.929688 148.980469 1462.152344 143.574219 1459.5625 138.101562 C 1456.96875 132.628906 1454.160156 127.230469 1451.148438 121.9375 C 1449.113281 118.355469 1446.855469 114.929688 1444.628906 111.496094 C 1442.175781 107.71875 1439.417969 104.125 1436.472656 100.675781 C 1432.023438 95.460938 1427.351562 90.457031 1422.351562 85.789062 C 1418.636719 82.320312 1414.695312 79.09375 1410.691406 75.957031 C 1405.285156 71.726562 1399.410156 68.199219 1393.382812 65.011719 C 1387.417969 61.855469 1381.164062 59.253906 1374.683594 57.222656 C 1368.484375 55.28125 1362.226562 53.503906 1355.988281 51.722656 C 1352.1875 50.640625 1348.28125 49.714844 1344.375 48.941406 C 1342.863281 48.640625 1341.40625 48.054688 1339.898438 47.738281 C 1332.746094 46.25 1325.488281 45.320312 1318.382812 43.570312 C 1316.027344 42.988281 1313.558594 42.859375 1311.1875 42.332031 C 1307.476562 41.5 1303.75 40.664062 1300.121094 39.539062 C 1295.902344 38.234375 1291.527344 37.605469 1287.328125 36.246094 C 1279.964844 33.867188 1272.398438 32.207031 1265.035156 29.792969 C 1260.460938 28.292969 1256.003906 26.4375 1251.386719 25.121094 C 1245.617188 23.484375 1240.1875 21.011719 1234.6875 18.746094 C 1229.464844 16.589844 1224.316406 14.214844 1219.242188 11.667969 C 1212.066406 8.0625 1205.472656 3.578125 1198.878906 -0.921875 C 1195.792969 -3.03125 1192.9375 -5.476562 1189.84375 -7.574219 C 1181.539062 -13.21875 1174.472656 -20.257812 1167.066406 -27.183594 Z M 1167.066406 -27.183594 " fill-opacity="1" fill-rule="nonzero"/></g></g></g><g clip-path="url(#92ab65450c)"><g clip-path="url(#cf73671108)"><g clip-path="url(#683ab7d599)"><path fill="#ff9e91" d="M 1568.546875 -46.671875 L 1577.617188 224.675781 C 1516.351562 222.441406 1528.082031 176.90625 1509.652344 150.277344 C 1491.210938 123.261719 1449.660156 139.441406 1421.238281 105.363281 C 1392.441406 71.6875 1399.007812 46.5625 1390.933594 26.59375 C 1382.863281 6.625 1355.089844 3.660156 1340.636719 -9.085938 C 1328.578125 -19.972656 1327.957031 -38.632812 1327.957031 -38.632812 Z M 1568.546875 -46.671875 " fill-opacity="1" fill-rule="nonzero"/></g></g></g></svg>