<svg xmlns="http://www.w3.org/2000/svg" xmlns:xlink="http://www.w3.org/1999/xlink" width="2000" zoomAndPan="magnify" viewBox="0 0 1500 227.999995" height="304" preserveAspectRatio="xMidYMid meet" version="1.0"><defs><g/><clipPath id="8f1d005014"><path d="M 412.988281 88.785156 L 511.382812 88.785156 L 511.382812 187.183594 L 412.988281 187.183594 Z M 412.988281 88.785156 " clip-rule="nonzero"/></clipPath><clipPath id="e063282f82"><path d="M 424.238281 88.785156 L 500.132812 88.785156 C 503.117188 88.785156 505.980469 89.972656 508.089844 92.082031 C 510.199219 94.191406 511.382812 97.050781 511.382812 100.035156 L 511.382812 175.933594 C 511.382812 178.917969 510.199219 181.777344 508.089844 183.890625 C 505.980469 186 503.117188 187.183594 500.132812 187.183594 L 424.238281 187.183594 C 421.253906 187.183594 418.390625 186 416.28125 183.890625 C 414.171875 181.777344 412.988281 178.917969 412.988281 175.933594 L 412.988281 100.035156 C 412.988281 97.050781 414.171875 94.191406 416.28125 92.082031 C 418.390625 89.972656 421.253906 88.785156 424.238281 88.785156 " clip-rule="nonzero"/></clipPath><clipPath id="b881da4dfd"><path d="M 412.988281 88.785156 L 511.238281 88.785156 L 511.238281 187.035156 L 412.988281 187.035156 Z M 412.988281 88.785156 " clip-rule="nonzero"/></clipPath><clipPath id="f44a76a65a"><path d="M 424.21875 88.785156 L 500.003906 88.785156 C 502.984375 88.785156 505.839844 89.96875 507.945312 92.074219 C 510.054688 94.183594 511.238281 97.039062 511.238281 100.019531 L 511.238281 175.800781 C 511.238281 178.78125 510.054688 181.640625 507.945312 183.746094 C 505.839844 185.851562 502.984375 187.035156 500.003906 187.035156 L 424.21875 187.035156 C 421.242188 187.035156 418.382812 185.851562 416.277344 183.746094 C 414.171875 181.640625 412.988281 178.78125 412.988281 175.800781 L 412.988281 100.019531 C 412.988281 97.039062 414.171875 94.183594 416.277344 92.074219 C 418.382812 89.96875 421.242188 88.785156 424.21875 88.785156 " clip-rule="nonzero"/></clipPath><clipPath id="e5c28ce034"><path d="M 434.347656 116.515625 L 489.847656 116.515625 L 489.847656 159 L 434.347656 159 Z M 434.347656 116.515625 " clip-rule="nonzero"/></clipPath><clipPath id="6b36577980"><path d="M 518.382812 88.785156 L 616.632812 88.785156 L 616.632812 187.035156 L 518.382812 187.035156 Z M 518.382812 88.785156 " clip-rule="nonzero"/></clipPath><clipPath id="aebd376ddf"><path d="M 529.617188 88.785156 L 605.398438 88.785156 C 608.378906 88.785156 611.238281 89.96875 613.34375 92.074219 C 615.449219 94.183594 616.632812 97.039062 616.632812 100.019531 L 616.632812 175.800781 C 616.632812 178.78125 615.449219 181.640625 613.34375 183.746094 C 611.238281 185.851562 608.378906 187.035156 605.398438 187.035156 L 529.617188 187.035156 C 526.636719 187.035156 523.78125 185.851562 521.671875 183.746094 C 519.566406 181.640625 518.382812 178.78125 518.382812 175.800781 L 518.382812 100.019531 C 518.382812 97.039062 519.566406 94.183594 521.671875 92.074219 C 523.78125 89.96875 526.636719 88.785156 529.617188 88.785156 " clip-rule="nonzero"/></clipPath><clipPath id="b15db6db68"><path d="M 751.238281 88.777344 L 849.636719 88.777344 L 849.636719 187.175781 L 751.238281 187.175781 Z M 751.238281 88.777344 " clip-rule="nonzero"/></clipPath><clipPath id="91ed85a803"><path d="M 762.488281 88.777344 L 838.386719 88.777344 C 841.371094 88.777344 844.230469 89.964844 846.339844 92.074219 C 848.449219 94.183594 849.636719 97.046875 849.636719 100.027344 L 849.636719 175.925781 C 849.636719 178.910156 848.449219 181.773438 846.339844 183.882812 C 844.230469 185.992188 841.371094 187.175781 838.386719 187.175781 L 762.488281 187.175781 C 759.503906 187.175781 756.640625 185.992188 754.53125 183.882812 C 752.421875 181.773438 751.238281 178.910156 751.238281 175.925781 L 751.238281 100.027344 C 751.238281 97.046875 752.421875 94.183594 754.53125 92.074219 C 756.640625 89.964844 759.503906 88.777344 762.488281 88.777344 " clip-rule="nonzero"/></clipPath><clipPath id="69151b1455"><path d="M 751.238281 88.777344 L 849.488281 88.777344 L 849.488281 187.027344 L 751.238281 187.027344 Z M 751.238281 88.777344 " clip-rule="nonzero"/></clipPath><clipPath id="a82c698e66"><path d="M 762.472656 88.777344 L 838.253906 88.777344 C 841.234375 88.777344 844.089844 89.960938 846.199219 92.070312 C 848.304688 94.175781 849.488281 97.03125 849.488281 100.011719 L 849.488281 175.796875 C 849.488281 178.773438 848.304688 181.632812 846.199219 183.738281 C 844.089844 185.847656 841.234375 187.027344 838.253906 187.027344 L 762.472656 187.027344 C 759.492188 187.027344 756.632812 185.847656 754.527344 183.738281 C 752.421875 181.632812 751.238281 178.773438 751.238281 175.796875 L 751.238281 100.011719 C 751.238281 97.03125 752.421875 94.175781 754.527344 92.070312 C 756.632812 89.960938 759.492188 88.777344 762.472656 88.777344 " clip-rule="nonzero"/></clipPath><clipPath id="b472d6bbee"><path d="M 772.601562 110.144531 L 828.101562 110.144531 L 828.101562 152.894531 L 772.601562 152.894531 Z M 772.601562 110.144531 " clip-rule="nonzero"/></clipPath><clipPath id="ad6b286d52"><path d="M 650.363281 88.777344 L 748.613281 88.777344 L 748.613281 187.027344 L 650.363281 187.027344 Z M 650.363281 88.777344 " clip-rule="nonzero"/></clipPath><clipPath id="7dc1354e79"><path d="M 661.597656 88.777344 L 737.382812 88.777344 C 740.359375 88.777344 743.21875 89.960938 745.324219 92.070312 C 747.429688 94.175781 748.613281 97.03125 748.613281 100.011719 L 748.613281 175.796875 C 748.613281 178.773438 747.429688 181.632812 745.324219 183.738281 C 743.21875 185.847656 740.359375 187.027344 737.382812 187.027344 L 661.597656 187.027344 C 658.617188 187.027344 655.761719 185.847656 653.65625 183.738281 C 651.546875 181.632812 650.363281 178.773438 650.363281 175.796875 L 650.363281 100.011719 C 650.363281 97.03125 651.546875 94.175781 653.65625 92.070312 C 655.761719 89.960938 658.617188 88.777344 661.597656 88.777344 " clip-rule="nonzero"/></clipPath></defs><rect x="-150" width="1800" fill="#ffffff" y="-22.8" height="273.599994" fill-opacity="1"/><rect x="-150" width="1800" fill="#ffffff" y="-22.8" height="273.599994" fill-opacity="1"/><rect x="-150" width="1800" fill="#ffffff" y="-22.8" height="273.599994" fill-opacity="1"/><g clip-path="url(#8f1d005014)"><g clip-path="url(#e063282f82)"><path fill="#00a215" d="M 412.988281 88.785156 L 511.382812 88.785156 L 511.382812 187.183594 L 412.988281 187.183594 Z M 412.988281 88.785156 " fill-opacity="1" fill-rule="nonzero"/></g></g><g clip-path="url(#b881da4dfd)"><g clip-path="url(#f44a76a65a)"><path stroke-linecap="butt" transform="matrix(0.748928, 0, 0, 0.748928, 412.98659, 88.785705)" fill="none" stroke-linejoin="miter" d="M 14.99765 -0.000732385 L 116.189162 -0.000732385 C 120.168809 -0.000732385 123.98155 1.579652 126.79286 4.390962 C 129.609386 7.207487 131.18977 11.020229 131.18977 14.999875 L 131.18977 116.186172 C 131.18977 120.165819 129.609386 123.983776 126.79286 126.795086 C 123.98155 129.606396 120.168809 131.18678 116.189162 131.18678 L 14.99765 131.18678 C 11.023219 131.18678 7.205262 129.606396 4.393952 126.795086 C 1.582642 123.983776 0.00225798 120.165819 0.00225798 116.186172 L 0.00225798 14.999875 C 0.00225798 11.020229 1.582642 7.207487 4.393952 4.390962 C 7.205262 1.579652 11.023219 -0.000732385 14.99765 -0.000732385 " stroke="#00a215" stroke-width="8" stroke-opacity="1" stroke-miterlimit="4"/></g></g><g clip-path="url(#e5c28ce034)"><path fill="#ffffff" d="M 452.007812 150.078125 L 438.859375 136.945312 L 434.394531 141.402344 L 452.007812 158.988281 L 489.847656 121.203125 L 485.386719 116.746094 Z M 452.007812 150.078125 " fill-opacity="1" fill-rule="nonzero"/></g><g clip-path="url(#6b36577980)"><g clip-path="url(#aebd376ddf)"><path stroke-linecap="butt" transform="matrix(0.748928, 0, 0, 0.748928, 518.383159, 88.785705)" fill="none" stroke-linejoin="miter" d="M 15.000144 -0.000732385 L 116.186441 -0.000732385 C 120.166088 -0.000732385 123.984045 1.579652 126.795355 4.390962 C 129.606665 7.207487 131.187049 11.020229 131.187049 14.999875 L 131.187049 116.186172 C 131.187049 120.165819 129.606665 123.983776 126.795355 126.795086 C 123.984045 129.606396 120.166088 131.18678 116.186441 131.18678 L 15.000144 131.18678 C 11.020498 131.18678 7.207756 129.606396 4.391231 126.795086 C 1.579921 123.983776 -0.000463302 120.165819 -0.000463302 116.186172 L -0.000463302 14.999875 C -0.000463302 11.020229 1.579921 7.207487 4.391231 4.390962 C 7.207756 1.579652 11.020498 -0.000732385 15.000144 -0.000732385 " stroke="#a8a8a8" stroke-width="8" stroke-opacity="1" stroke-miterlimit="4"/></g></g><g clip-path="url(#b15db6db68)"><g clip-path="url(#91ed85a803)"><path fill="#00a215" d="M 751.238281 88.777344 L 849.636719 88.777344 L 849.636719 187.175781 L 751.238281 187.175781 Z M 751.238281 88.777344 " fill-opacity="1" fill-rule="nonzero"/></g></g><g clip-path="url(#69151b1455)"><g clip-path="url(#a82c698e66)"><path stroke-linecap="butt" transform="matrix(0.748928, 0, 0, 0.748928, 751.237649, 88.779237)" fill="none" stroke-linejoin="miter" d="M 15.001452 -0.00252762 L 116.187749 -0.00252762 C 120.167396 -0.00252762 123.980137 1.577856 126.796663 4.394382 C 129.607973 7.205692 131.188357 11.018433 131.188357 14.99808 L 131.188357 116.189593 C 131.188357 120.164023 129.607973 123.981981 126.796663 126.79329 C 123.980137 129.609816 120.167396 131.184984 116.187749 131.184984 L 15.001452 131.184984 C 11.021806 131.184984 7.203849 129.609816 4.392539 126.79329 C 1.581229 123.981981 0.000844646 120.164023 0.000844646 116.189593 L 0.000844646 14.99808 C 0.000844646 11.018433 1.581229 7.205692 4.392539 4.394382 C 7.203849 1.577856 11.021806 -0.00252762 15.001452 -0.00252762 " stroke="#00a215" stroke-width="8" stroke-opacity="1" stroke-miterlimit="4"/></g></g><g clip-path="url(#b472d6bbee)"><path fill="#ffffff" d="M 790.257812 143.707031 L 777.109375 130.574219 L 772.648438 135.03125 L 790.257812 152.617188 L 828.101562 114.832031 L 823.636719 110.375 Z M 790.257812 143.707031 " fill-opacity="1" fill-rule="nonzero"/></g><g clip-path="url(#ad6b286d52)"><g clip-path="url(#7dc1354e79)"><path stroke-linecap="butt" transform="matrix(0.748928, 0, 0, 0.748928, 650.364239, 88.779237)" fill="none" stroke-linejoin="miter" d="M 14.999329 -0.00252762 L 116.190841 -0.00252762 C 120.165272 -0.00252762 123.983229 1.577856 126.794539 4.394382 C 129.605849 7.205692 131.186233 11.018433 131.186233 14.99808 L 131.186233 116.189593 C 131.186233 120.164023 129.605849 123.981981 126.794539 126.79329 C 123.983229 129.609816 120.165272 131.184984 116.190841 131.184984 L 14.999329 131.184984 C 11.019682 131.184984 7.206941 129.609816 4.395631 126.79329 C 1.579105 123.981981 -0.00127894 120.164023 -0.00127894 116.189593 L -0.00127894 14.99808 C -0.00127894 11.018433 1.579105 7.205692 4.395631 4.394382 C 7.206941 1.577856 11.019682 -0.00252762 14.999329 -0.00252762 " stroke="#a8a8a8" stroke-width="8" stroke-opacity="1" stroke-miterlimit="4"/></g></g><g fill="#000000" fill-opacity="1"><g transform="translate(404.943261, 68.666227)"><g><path d="M 10.828125 0.296875 C 8.910156 0.296875 7.242188 -0.140625 5.828125 -1.015625 C 4.410156 -1.890625 3.316406 -3.128906 2.546875 -4.734375 C 1.773438 -6.347656 1.390625 -8.242188 1.390625 -10.421875 C 1.390625 -12.648438 1.789062 -14.570312 2.59375 -16.1875 C 3.40625 -17.8125 4.535156 -19.0625 5.984375 -19.9375 C 7.429688 -20.8125 9.125 -21.25 11.0625 -21.25 C 12.3125 -21.25 13.445312 -21.050781 14.46875 -20.65625 C 15.5 -20.257812 16.390625 -19.71875 17.140625 -19.03125 C 17.898438 -18.351562 18.492188 -17.578125 18.921875 -16.703125 C 19.359375 -15.835938 19.597656 -14.941406 19.640625 -14.015625 L 15.171875 -14.015625 C 15.046875 -14.679688 14.796875 -15.289062 14.421875 -15.84375 C 14.046875 -16.394531 13.566406 -16.835938 12.984375 -17.171875 C 12.410156 -17.503906 11.738281 -17.671875 10.96875 -17.671875 C 10.03125 -17.671875 9.1875 -17.429688 8.4375 -16.953125 C 7.6875 -16.472656 7.09375 -15.710938 6.65625 -14.671875 C 6.21875 -13.628906 6 -12.253906 6 -10.546875 C 6 -9.160156 6.140625 -8.007812 6.421875 -7.09375 C 6.710938 -6.175781 7.097656 -5.445312 7.578125 -4.90625 C 8.066406 -4.375 8.617188 -3.992188 9.234375 -3.765625 C 9.859375 -3.546875 10.492188 -3.4375 11.140625 -3.4375 C 11.753906 -3.4375 12.304688 -3.539062 12.796875 -3.75 C 13.285156 -3.957031 13.703125 -4.222656 14.046875 -4.546875 C 14.398438 -4.878906 14.675781 -5.238281 14.875 -5.625 C 15.082031 -6.019531 15.210938 -6.40625 15.265625 -6.78125 L 15.421875 -8.0625 L 11.09375 -8.0625 L 11.09375 -10.984375 L 19.859375 -10.953125 L 19.859375 0 L 16.984375 0 L 16.984375 -2.734375 C 16.617188 -2.265625 16.171875 -1.796875 15.640625 -1.328125 C 15.117188 -0.859375 14.46875 -0.46875 13.6875 -0.15625 C 12.914062 0.144531 11.960938 0.296875 10.828125 0.296875 Z M 10.828125 0.296875 "/></g></g></g><g fill="#000000" fill-opacity="1"><g transform="translate(426.948326, 68.666227)"><g><path d="M 8.25 0.296875 C 6.78125 0.296875 5.5 -0.015625 4.40625 -0.640625 C 3.320312 -1.273438 2.484375 -2.164062 1.890625 -3.3125 C 1.296875 -4.46875 1 -5.832031 1 -7.40625 C 1 -8.976562 1.296875 -10.351562 1.890625 -11.53125 C 2.484375 -12.71875 3.320312 -13.640625 4.40625 -14.296875 C 5.5 -14.953125 6.785156 -15.28125 8.265625 -15.28125 C 9.742188 -15.28125 11.023438 -14.957031 12.109375 -14.3125 C 13.191406 -13.675781 14.023438 -12.765625 14.609375 -11.578125 C 15.203125 -10.398438 15.5 -9.007812 15.5 -7.40625 C 15.5 -5.894531 15.210938 -4.5625 14.640625 -3.40625 C 14.066406 -2.257812 13.238281 -1.351562 12.15625 -0.6875 C 11.082031 -0.03125 9.78125 0.296875 8.25 0.296875 Z M 8.265625 -2.859375 C 9.003906 -2.859375 9.601562 -3.070312 10.0625 -3.5 C 10.519531 -3.9375 10.851562 -4.507812 11.0625 -5.21875 C 11.269531 -5.9375 11.375 -6.710938 11.375 -7.546875 C 11.375 -8.347656 11.273438 -9.097656 11.078125 -9.796875 C 10.890625 -10.503906 10.566406 -11.078125 10.109375 -11.515625 C 9.660156 -11.953125 9.046875 -12.171875 8.265625 -12.171875 C 7.523438 -12.171875 6.921875 -11.960938 6.453125 -11.546875 C 5.992188 -11.140625 5.660156 -10.582031 5.453125 -9.875 C 5.242188 -9.175781 5.140625 -8.398438 5.140625 -7.546875 C 5.140625 -6.765625 5.234375 -6.015625 5.421875 -5.296875 C 5.617188 -4.578125 5.941406 -3.988281 6.390625 -3.53125 C 6.847656 -3.082031 7.472656 -2.859375 8.265625 -2.859375 Z M 8.265625 -2.859375 "/></g></g></g><g fill="#000000" fill-opacity="1"><g transform="translate(443.444869, 68.666227)"><g><path d="M 8.25 0.296875 C 6.78125 0.296875 5.5 -0.015625 4.40625 -0.640625 C 3.320312 -1.273438 2.484375 -2.164062 1.890625 -3.3125 C 1.296875 -4.46875 1 -5.832031 1 -7.40625 C 1 -8.976562 1.296875 -10.351562 1.890625 -11.53125 C 2.484375 -12.71875 3.320312 -13.640625 4.40625 -14.296875 C 5.5 -14.953125 6.785156 -15.28125 8.265625 -15.28125 C 9.742188 -15.28125 11.023438 -14.957031 12.109375 -14.3125 C 13.191406 -13.675781 14.023438 -12.765625 14.609375 -11.578125 C 15.203125 -10.398438 15.5 -9.007812 15.5 -7.40625 C 15.5 -5.894531 15.210938 -4.5625 14.640625 -3.40625 C 14.066406 -2.257812 13.238281 -1.351562 12.15625 -0.6875 C 11.082031 -0.03125 9.78125 0.296875 8.25 0.296875 Z M 8.265625 -2.859375 C 9.003906 -2.859375 9.601562 -3.070312 10.0625 -3.5 C 10.519531 -3.9375 10.851562 -4.507812 11.0625 -5.21875 C 11.269531 -5.9375 11.375 -6.710938 11.375 -7.546875 C 11.375 -8.347656 11.273438 -9.097656 11.078125 -9.796875 C 10.890625 -10.503906 10.566406 -11.078125 10.109375 -11.515625 C 9.660156 -11.953125 9.046875 -12.171875 8.265625 -12.171875 C 7.523438 -12.171875 6.921875 -11.960938 6.453125 -11.546875 C 5.992188 -11.140625 5.660156 -10.582031 5.453125 -9.875 C 5.242188 -9.175781 5.140625 -8.398438 5.140625 -7.546875 C 5.140625 -6.765625 5.234375 -6.015625 5.421875 -5.296875 C 5.617188 -4.578125 5.941406 -3.988281 6.390625 -3.53125 C 6.847656 -3.082031 7.472656 -2.859375 8.265625 -2.859375 Z M 8.265625 -2.859375 "/></g></g></g><g fill="#000000" fill-opacity="1"><g transform="translate(459.941412, 68.666227)"><g><path d="M 7.375 0.296875 C 5.363281 0.296875 3.796875 -0.394531 2.671875 -1.78125 C 1.554688 -3.175781 1 -5.109375 1 -7.578125 C 1 -9.148438 1.222656 -10.507812 1.671875 -11.65625 C 2.128906 -12.8125 2.800781 -13.703125 3.6875 -14.328125 C 4.582031 -14.960938 5.671875 -15.28125 6.953125 -15.28125 C 7.492188 -15.28125 8 -15.21875 8.46875 -15.09375 C 8.9375 -14.976562 9.363281 -14.8125 9.75 -14.59375 C 10.144531 -14.382812 10.484375 -14.140625 10.765625 -13.859375 C 11.054688 -13.578125 11.296875 -13.28125 11.484375 -12.96875 L 11.484375 -21.546875 L 15.734375 -21.546875 L 15.734375 0 L 12.65625 0 L 12.1875 -3.078125 C 12.050781 -2.660156 11.859375 -2.253906 11.609375 -1.859375 C 11.367188 -1.460938 11.0625 -1.101562 10.6875 -0.78125 C 10.3125 -0.457031 9.847656 -0.195312 9.296875 0 C 8.753906 0.195312 8.113281 0.296875 7.375 0.296875 Z M 8.3125 -2.75 C 9.375 -2.75 10.164062 -3.117188 10.6875 -3.859375 C 11.21875 -4.609375 11.484375 -5.867188 11.484375 -7.640625 C 11.472656 -8.660156 11.347656 -9.507812 11.109375 -10.1875 C 10.878906 -10.863281 10.535156 -11.367188 10.078125 -11.703125 C 9.617188 -12.035156 9.039062 -12.203125 8.34375 -12.203125 C 7.414062 -12.203125 6.648438 -11.851562 6.046875 -11.15625 C 5.441406 -10.457031 5.140625 -9.285156 5.140625 -7.640625 C 5.140625 -5.972656 5.421875 -4.738281 5.984375 -3.9375 C 6.554688 -3.144531 7.332031 -2.75 8.3125 -2.75 Z M 8.3125 -2.75 "/></g></g></g><g fill="#000000" fill-opacity="1"><g transform="translate(477.481679, 68.666227)"><g/></g></g><g fill="#000000" fill-opacity="1"><g transform="translate(483.628025, 68.666227)"><g><path d="M 10.890625 -21.25 C 12.460938 -21.25 13.863281 -20.929688 15.09375 -20.296875 C 16.332031 -19.671875 17.332031 -18.8125 18.09375 -17.71875 C 18.851562 -16.625 19.300781 -15.390625 19.4375 -14.015625 L 15 -14.015625 C 14.863281 -14.742188 14.613281 -15.390625 14.25 -15.953125 C 13.894531 -16.523438 13.425781 -16.972656 12.84375 -17.296875 C 12.269531 -17.617188 11.578125 -17.78125 10.765625 -17.78125 C 9.785156 -17.78125 8.941406 -17.539062 8.234375 -17.0625 C 7.523438 -16.59375 6.984375 -15.828125 6.609375 -14.765625 C 6.234375 -13.710938 6.046875 -12.320312 6.046875 -10.59375 C 6.046875 -7.988281 6.460938 -6.101562 7.296875 -4.9375 C 8.140625 -3.769531 9.296875 -3.1875 10.765625 -3.1875 C 11.578125 -3.1875 12.269531 -3.375 12.84375 -3.75 C 13.425781 -4.125 13.894531 -4.613281 14.25 -5.21875 C 14.613281 -5.832031 14.863281 -6.507812 15 -7.25 L 19.4375 -7.25 C 19.300781 -6.25 19.054688 -5.296875 18.703125 -4.390625 C 18.347656 -3.492188 17.84375 -2.691406 17.1875 -1.984375 C 16.53125 -1.273438 15.679688 -0.71875 14.640625 -0.3125 C 13.609375 0.09375 12.359375 0.296875 10.890625 0.296875 C 8.929688 0.296875 7.242188 -0.15625 5.828125 -1.0625 C 4.410156 -1.976562 3.316406 -3.253906 2.546875 -4.890625 C 1.773438 -6.535156 1.390625 -8.457031 1.390625 -10.65625 C 1.390625 -12.863281 1.769531 -14.753906 2.53125 -16.328125 C 3.300781 -17.910156 4.394531 -19.125 5.8125 -19.96875 C 7.238281 -20.820312 8.929688 -21.25 10.890625 -21.25 Z M 10.890625 -21.25 "/></g></g></g><g fill="#000000" fill-opacity="1"><g transform="translate(504.444404, 68.666227)"><g><path d="M 8.25 0.296875 C 6.78125 0.296875 5.5 -0.015625 4.40625 -0.640625 C 3.320312 -1.273438 2.484375 -2.164062 1.890625 -3.3125 C 1.296875 -4.46875 1 -5.832031 1 -7.40625 C 1 -8.976562 1.296875 -10.351562 1.890625 -11.53125 C 2.484375 -12.71875 3.320312 -13.640625 4.40625 -14.296875 C 5.5 -14.953125 6.785156 -15.28125 8.265625 -15.28125 C 9.742188 -15.28125 11.023438 -14.957031 12.109375 -14.3125 C 13.191406 -13.675781 14.023438 -12.765625 14.609375 -11.578125 C 15.203125 -10.398438 15.5 -9.007812 15.5 -7.40625 C 15.5 -5.894531 15.210938 -4.5625 14.640625 -3.40625 C 14.066406 -2.257812 13.238281 -1.351562 12.15625 -0.6875 C 11.082031 -0.03125 9.78125 0.296875 8.25 0.296875 Z M 8.265625 -2.859375 C 9.003906 -2.859375 9.601562 -3.070312 10.0625 -3.5 C 10.519531 -3.9375 10.851562 -4.507812 11.0625 -5.21875 C 11.269531 -5.9375 11.375 -6.710938 11.375 -7.546875 C 11.375 -8.347656 11.273438 -9.097656 11.078125 -9.796875 C 10.890625 -10.503906 10.566406 -11.078125 10.109375 -11.515625 C 9.660156 -11.953125 9.046875 -12.171875 8.265625 -12.171875 C 7.523438 -12.171875 6.921875 -11.960938 6.453125 -11.546875 C 5.992188 -11.140625 5.660156 -10.582031 5.453125 -9.875 C 5.242188 -9.175781 5.140625 -8.398438 5.140625 -7.546875 C 5.140625 -6.765625 5.234375 -6.015625 5.421875 -5.296875 C 5.617188 -4.578125 5.941406 -3.988281 6.390625 -3.53125 C 6.847656 -3.082031 7.472656 -2.859375 8.265625 -2.859375 Z M 8.265625 -2.859375 "/></g></g></g><g fill="#000000" fill-opacity="1"><g transform="translate(520.940947, 68.666227)"><g><path d="M 1.8125 0 L 1.8125 -15 L 5.96875 -15 L 5.96875 -12.875 C 6.207031 -13.238281 6.507812 -13.59375 6.875 -13.9375 C 7.25 -14.28125 7.722656 -14.5625 8.296875 -14.78125 C 8.867188 -15.007812 9.546875 -15.125 10.328125 -15.125 C 11.242188 -15.125 12.097656 -14.941406 12.890625 -14.578125 C 13.691406 -14.222656 14.335938 -13.660156 14.828125 -12.890625 C 15.328125 -12.128906 15.578125 -11.128906 15.578125 -9.890625 L 15.578125 0 L 11.34375 0 L 11.34375 -9.359375 C 11.34375 -10.171875 11.097656 -10.78125 10.609375 -11.1875 C 10.128906 -11.59375 9.539062 -11.796875 8.84375 -11.796875 C 8.382812 -11.796875 7.9375 -11.710938 7.5 -11.546875 C 7.070312 -11.390625 6.722656 -11.144531 6.453125 -10.8125 C 6.179688 -10.488281 6.046875 -10.082031 6.046875 -9.59375 L 6.046875 0 Z M 1.8125 0 "/></g></g></g><g fill="#000000" fill-opacity="1"><g transform="translate(538.133302, 68.666227)"><g><path d="M 7.375 0.296875 C 5.363281 0.296875 3.796875 -0.394531 2.671875 -1.78125 C 1.554688 -3.175781 1 -5.109375 1 -7.578125 C 1 -9.148438 1.222656 -10.507812 1.671875 -11.65625 C 2.128906 -12.8125 2.800781 -13.703125 3.6875 -14.328125 C 4.582031 -14.960938 5.671875 -15.28125 6.953125 -15.28125 C 7.492188 -15.28125 8 -15.21875 8.46875 -15.09375 C 8.9375 -14.976562 9.363281 -14.8125 9.75 -14.59375 C 10.144531 -14.382812 10.484375 -14.140625 10.765625 -13.859375 C 11.054688 -13.578125 11.296875 -13.28125 11.484375 -12.96875 L 11.484375 -21.546875 L 15.734375 -21.546875 L 15.734375 0 L 12.65625 0 L 12.1875 -3.078125 C 12.050781 -2.660156 11.859375 -2.253906 11.609375 -1.859375 C 11.367188 -1.460938 11.0625 -1.101562 10.6875 -0.78125 C 10.3125 -0.457031 9.847656 -0.195312 9.296875 0 C 8.753906 0.195312 8.113281 0.296875 7.375 0.296875 Z M 8.3125 -2.75 C 9.375 -2.75 10.164062 -3.117188 10.6875 -3.859375 C 11.21875 -4.609375 11.484375 -5.867188 11.484375 -7.640625 C 11.472656 -8.660156 11.347656 -9.507812 11.109375 -10.1875 C 10.878906 -10.863281 10.535156 -11.367188 10.078125 -11.703125 C 9.617188 -12.035156 9.039062 -12.203125 8.34375 -12.203125 C 7.414062 -12.203125 6.648438 -11.851562 6.046875 -11.15625 C 5.441406 -10.457031 5.140625 -9.285156 5.140625 -7.640625 C 5.140625 -5.972656 5.421875 -4.738281 5.984375 -3.9375 C 6.554688 -3.144531 7.332031 -2.75 8.3125 -2.75 Z M 8.3125 -2.75 "/></g></g></g><g fill="#000000" fill-opacity="1"><g transform="translate(555.673568, 68.666227)"><g><path d="M 6.078125 -15 L 6.078125 0 L 2.03125 0 L 2.03125 -15 Z M 6.125 -20.953125 L 6.125 -17.140625 L 2 -17.140625 L 2 -20.953125 Z M 6.125 -20.953125 "/></g></g></g><g fill="#000000" fill-opacity="1"><g transform="translate(563.776877, 68.666227)"><g><path d="M 10.953125 -12.046875 L 7.609375 -12.046875 L 7.640625 -4.0625 C 7.640625 -3.695312 7.6875 -3.421875 7.78125 -3.234375 C 7.875 -3.054688 8.019531 -2.941406 8.21875 -2.890625 C 8.414062 -2.835938 8.664062 -2.8125 8.96875 -2.8125 L 10.984375 -2.8125 L 10.984375 -0.203125 C 10.796875 -0.117188 10.492188 -0.0390625 10.078125 0.03125 C 9.671875 0.113281 9.097656 0.15625 8.359375 0.15625 C 7.046875 0.15625 6.03125 -0.0078125 5.3125 -0.34375 C 4.59375 -0.6875 4.09375 -1.160156 3.8125 -1.765625 C 3.53125 -2.378906 3.390625 -3.085938 3.390625 -3.890625 L 3.390625 -12.046875 L 0.953125 -12.046875 L 0.953125 -15 L 3.53125 -15 L 4.59375 -19.515625 L 7.609375 -19.515625 L 7.609375 -15 L 10.953125 -15 Z M 10.953125 -12.046875 "/></g></g></g><g fill="#000000" fill-opacity="1"><g transform="translate(576.026072, 68.666227)"><g><path d="M 6.078125 -15 L 6.078125 0 L 2.03125 0 L 2.03125 -15 Z M 6.125 -20.953125 L 6.125 -17.140625 L 2 -17.140625 L 2 -20.953125 Z M 6.125 -20.953125 "/></g></g></g><g fill="#000000" fill-opacity="1"><g transform="translate(584.129381, 68.666227)"><g><path d="M 8.25 0.296875 C 6.78125 0.296875 5.5 -0.015625 4.40625 -0.640625 C 3.320312 -1.273438 2.484375 -2.164062 1.890625 -3.3125 C 1.296875 -4.46875 1 -5.832031 1 -7.40625 C 1 -8.976562 1.296875 -10.351562 1.890625 -11.53125 C 2.484375 -12.71875 3.320312 -13.640625 4.40625 -14.296875 C 5.5 -14.953125 6.785156 -15.28125 8.265625 -15.28125 C 9.742188 -15.28125 11.023438 -14.957031 12.109375 -14.3125 C 13.191406 -13.675781 14.023438 -12.765625 14.609375 -11.578125 C 15.203125 -10.398438 15.5 -9.007812 15.5 -7.40625 C 15.5 -5.894531 15.210938 -4.5625 14.640625 -3.40625 C 14.066406 -2.257812 13.238281 -1.351562 12.15625 -0.6875 C 11.082031 -0.03125 9.78125 0.296875 8.25 0.296875 Z M 8.265625 -2.859375 C 9.003906 -2.859375 9.601562 -3.070312 10.0625 -3.5 C 10.519531 -3.9375 10.851562 -4.507812 11.0625 -5.21875 C 11.269531 -5.9375 11.375 -6.710938 11.375 -7.546875 C 11.375 -8.347656 11.273438 -9.097656 11.078125 -9.796875 C 10.890625 -10.503906 10.566406 -11.078125 10.109375 -11.515625 C 9.660156 -11.953125 9.046875 -12.171875 8.265625 -12.171875 C 7.523438 -12.171875 6.921875 -11.960938 6.453125 -11.546875 C 5.992188 -11.140625 5.660156 -10.582031 5.453125 -9.875 C 5.242188 -9.175781 5.140625 -8.398438 5.140625 -7.546875 C 5.140625 -6.765625 5.234375 -6.015625 5.421875 -5.296875 C 5.617188 -4.578125 5.941406 -3.988281 6.390625 -3.53125 C 6.847656 -3.082031 7.472656 -2.859375 8.265625 -2.859375 Z M 8.265625 -2.859375 "/></g></g></g><g fill="#000000" fill-opacity="1"><g transform="translate(600.625913, 68.666227)"><g><path d="M 1.8125 0 L 1.8125 -15 L 5.96875 -15 L 5.96875 -12.875 C 6.207031 -13.238281 6.507812 -13.59375 6.875 -13.9375 C 7.25 -14.28125 7.722656 -14.5625 8.296875 -14.78125 C 8.867188 -15.007812 9.546875 -15.125 10.328125 -15.125 C 11.242188 -15.125 12.097656 -14.941406 12.890625 -14.578125 C 13.691406 -14.222656 14.335938 -13.660156 14.828125 -12.890625 C 15.328125 -12.128906 15.578125 -11.128906 15.578125 -9.890625 L 15.578125 0 L 11.34375 0 L 11.34375 -9.359375 C 11.34375 -10.171875 11.097656 -10.78125 10.609375 -11.1875 C 10.128906 -11.59375 9.539062 -11.796875 8.84375 -11.796875 C 8.382812 -11.796875 7.9375 -11.710938 7.5 -11.546875 C 7.070312 -11.390625 6.722656 -11.144531 6.453125 -10.8125 C 6.179688 -10.488281 6.046875 -10.082031 6.046875 -9.59375 L 6.046875 0 Z M 1.8125 0 "/></g></g></g><g fill="#000000" fill-opacity="1"><g transform="translate(664.093805, 68.666191)"><g><path d="M 16.109375 -20.96875 L 20.34375 -20.96875 L 20.34375 0 L 16.53125 0 L 6.5625 -14.421875 L 6.5625 0 L 2.34375 0 L 2.34375 -20.96875 L 6.546875 -20.96875 L 16.109375 -7.09375 Z M 16.109375 -20.96875 "/></g></g></g><g fill="#000000" fill-opacity="1"><g transform="translate(686.765683, 68.666191)"><g><path d="M 8.25 0.296875 C 6.78125 0.296875 5.5 -0.015625 4.40625 -0.640625 C 3.320312 -1.273438 2.484375 -2.164062 1.890625 -3.3125 C 1.296875 -4.46875 1 -5.832031 1 -7.40625 C 1 -8.976562 1.296875 -10.351562 1.890625 -11.53125 C 2.484375 -12.71875 3.320312 -13.640625 4.40625 -14.296875 C 5.5 -14.953125 6.785156 -15.28125 8.265625 -15.28125 C 9.742188 -15.28125 11.023438 -14.957031 12.109375 -14.3125 C 13.191406 -13.675781 14.023438 -12.765625 14.609375 -11.578125 C 15.203125 -10.398438 15.5 -9.007812 15.5 -7.40625 C 15.5 -5.894531 15.210938 -4.5625 14.640625 -3.40625 C 14.066406 -2.257812 13.238281 -1.351562 12.15625 -0.6875 C 11.082031 -0.03125 9.78125 0.296875 8.25 0.296875 Z M 8.265625 -2.859375 C 9.003906 -2.859375 9.601562 -3.070312 10.0625 -3.5 C 10.519531 -3.9375 10.851562 -4.507812 11.0625 -5.21875 C 11.269531 -5.9375 11.375 -6.710938 11.375 -7.546875 C 11.375 -8.347656 11.273438 -9.097656 11.078125 -9.796875 C 10.890625 -10.503906 10.566406 -11.078125 10.109375 -11.515625 C 9.660156 -11.953125 9.046875 -12.171875 8.265625 -12.171875 C 7.523438 -12.171875 6.921875 -11.960938 6.453125 -11.546875 C 5.992188 -11.140625 5.660156 -10.582031 5.453125 -9.875 C 5.242188 -9.175781 5.140625 -8.398438 5.140625 -7.546875 C 5.140625 -6.765625 5.234375 -6.015625 5.421875 -5.296875 C 5.617188 -4.578125 5.941406 -3.988281 6.390625 -3.53125 C 6.847656 -3.082031 7.472656 -2.859375 8.265625 -2.859375 Z M 8.265625 -2.859375 "/></g></g></g><g fill="#000000" fill-opacity="1"><g transform="translate(703.262225, 68.666191)"><g><path d="M 10.953125 -12.046875 L 7.609375 -12.046875 L 7.640625 -4.0625 C 7.640625 -3.695312 7.6875 -3.421875 7.78125 -3.234375 C 7.875 -3.054688 8.019531 -2.941406 8.21875 -2.890625 C 8.414062 -2.835938 8.664062 -2.8125 8.96875 -2.8125 L 10.984375 -2.8125 L 10.984375 -0.203125 C 10.796875 -0.117188 10.492188 -0.0390625 10.078125 0.03125 C 9.671875 0.113281 9.097656 0.15625 8.359375 0.15625 C 7.046875 0.15625 6.03125 -0.0078125 5.3125 -0.34375 C 4.59375 -0.6875 4.09375 -1.160156 3.8125 -1.765625 C 3.53125 -2.378906 3.390625 -3.085938 3.390625 -3.890625 L 3.390625 -12.046875 L 0.953125 -12.046875 L 0.953125 -15 L 3.53125 -15 L 4.59375 -19.515625 L 7.609375 -19.515625 L 7.609375 -15 L 10.953125 -15 Z M 10.953125 -12.046875 "/></g></g></g><g fill="#000000" fill-opacity="1"><g transform="translate(715.51142, 68.666191)"><g/></g></g><g fill="#000000" fill-opacity="1"><g transform="translate(721.657766, 68.666191)"><g><path d="M 27.53125 -20.96875 L 21.34375 0 L 17.96875 0 L 14.015625 -13.703125 L 10.046875 0 L 6.734375 0 L 0.546875 -20.96875 L 4.703125 -20.96875 L 8.59375 -7.125 L 12.5 -20.96875 L 15.5625 -20.96875 L 19.5 -7.125 L 23.40625 -20.96875 Z M 27.53125 -20.96875 "/></g></g></g><g fill="#000000" fill-opacity="1"><g transform="translate(749.736691, 68.666191)"><g><path d="M 8.25 0.296875 C 6.78125 0.296875 5.5 -0.015625 4.40625 -0.640625 C 3.320312 -1.273438 2.484375 -2.164062 1.890625 -3.3125 C 1.296875 -4.46875 1 -5.832031 1 -7.40625 C 1 -8.976562 1.296875 -10.351562 1.890625 -11.53125 C 2.484375 -12.71875 3.320312 -13.640625 4.40625 -14.296875 C 5.5 -14.953125 6.785156 -15.28125 8.265625 -15.28125 C 9.742188 -15.28125 11.023438 -14.957031 12.109375 -14.3125 C 13.191406 -13.675781 14.023438 -12.765625 14.609375 -11.578125 C 15.203125 -10.398438 15.5 -9.007812 15.5 -7.40625 C 15.5 -5.894531 15.210938 -4.5625 14.640625 -3.40625 C 14.066406 -2.257812 13.238281 -1.351562 12.15625 -0.6875 C 11.082031 -0.03125 9.78125 0.296875 8.25 0.296875 Z M 8.265625 -2.859375 C 9.003906 -2.859375 9.601562 -3.070312 10.0625 -3.5 C 10.519531 -3.9375 10.851562 -4.507812 11.0625 -5.21875 C 11.269531 -5.9375 11.375 -6.710938 11.375 -7.546875 C 11.375 -8.347656 11.273438 -9.097656 11.078125 -9.796875 C 10.890625 -10.503906 10.566406 -11.078125 10.109375 -11.515625 C 9.660156 -11.953125 9.046875 -12.171875 8.265625 -12.171875 C 7.523438 -12.171875 6.921875 -11.960938 6.453125 -11.546875 C 5.992188 -11.140625 5.660156 -10.582031 5.453125 -9.875 C 5.242188 -9.175781 5.140625 -8.398438 5.140625 -7.546875 C 5.140625 -6.765625 5.234375 -6.015625 5.421875 -5.296875 C 5.617188 -4.578125 5.941406 -3.988281 6.390625 -3.53125 C 6.847656 -3.082031 7.472656 -2.859375 8.265625 -2.859375 Z M 8.265625 -2.859375 "/></g></g></g><g fill="#000000" fill-opacity="1"><g transform="translate(766.233234, 68.666191)"><g><path d="M 1.8125 0 L 1.8125 -15 L 5.890625 -15 L 5.890625 -11.4375 C 6.128906 -12.195312 6.46875 -12.863281 6.90625 -13.4375 C 7.34375 -14.019531 7.875 -14.472656 8.5 -14.796875 C 9.132812 -15.117188 9.847656 -15.28125 10.640625 -15.28125 C 10.773438 -15.28125 10.898438 -15.269531 11.015625 -15.25 C 11.140625 -15.238281 11.234375 -15.222656 11.296875 -15.203125 L 11.296875 -11.171875 C 11.210938 -11.203125 11.109375 -11.222656 10.984375 -11.234375 C 10.859375 -11.242188 10.75 -11.253906 10.65625 -11.265625 C 9.820312 -11.335938 9.109375 -11.3125 8.515625 -11.1875 C 7.929688 -11.070312 7.457031 -10.875 7.09375 -10.59375 C 6.726562 -10.3125 6.460938 -9.96875 6.296875 -9.5625 C 6.128906 -9.164062 6.046875 -8.710938 6.046875 -8.203125 L 6.046875 0 Z M 1.8125 0 "/></g></g></g><g fill="#000000" fill-opacity="1"><g transform="translate(778.018553, 68.666191)"><g><path d="M 16.296875 0 L 12.078125 0 L 8.03125 -6.46875 L 6.046875 -4.34375 L 6.046875 0 L 1.8125 0 L 1.8125 -21.546875 L 6.046875 -21.546875 L 6.046875 -8.765625 L 11.5625 -15 L 16.109375 -15 L 10.65625 -9.015625 Z M 16.296875 0 "/></g></g></g><g fill="#000000" fill-opacity="1"><g transform="translate(794.863008, 68.666191)"><g><path d="M 6.078125 -15 L 6.078125 0 L 2.03125 0 L 2.03125 -15 Z M 6.125 -20.953125 L 6.125 -17.140625 L 2 -17.140625 L 2 -20.953125 Z M 6.125 -20.953125 "/></g></g></g><g fill="#000000" fill-opacity="1"><g transform="translate(802.966317, 68.666191)"><g><path d="M 1.8125 0 L 1.8125 -15 L 5.96875 -15 L 5.96875 -12.875 C 6.207031 -13.238281 6.507812 -13.59375 6.875 -13.9375 C 7.25 -14.28125 7.722656 -14.5625 8.296875 -14.78125 C 8.867188 -15.007812 9.546875 -15.125 10.328125 -15.125 C 11.242188 -15.125 12.097656 -14.941406 12.890625 -14.578125 C 13.691406 -14.222656 14.335938 -13.660156 14.828125 -12.890625 C 15.328125 -12.128906 15.578125 -11.128906 15.578125 -9.890625 L 15.578125 0 L 11.34375 0 L 11.34375 -9.359375 C 11.34375 -10.171875 11.097656 -10.78125 10.609375 -11.1875 C 10.128906 -11.59375 9.539062 -11.796875 8.84375 -11.796875 C 8.382812 -11.796875 7.9375 -11.710938 7.5 -11.546875 C 7.070312 -11.390625 6.722656 -11.144531 6.453125 -10.8125 C 6.179688 -10.488281 6.046875 -10.082031 6.046875 -9.59375 L 6.046875 0 Z M 1.8125 0 "/></g></g></g><g fill="#000000" fill-opacity="1"><g transform="translate(820.158671, 68.666191)"><g><path d="M 8.765625 4.953125 C 6.085938 4.953125 4.054688 4.613281 2.671875 3.9375 C 1.285156 3.257812 0.59375 2.375 0.59375 1.28125 C 0.59375 0.757812 0.726562 0.328125 1 -0.015625 C 1.269531 -0.359375 1.585938 -0.632812 1.953125 -0.84375 C 2.316406 -1.050781 2.648438 -1.210938 2.953125 -1.328125 C 3.253906 -1.441406 3.441406 -1.515625 3.515625 -1.546875 C 3.359375 -1.640625 3.132812 -1.769531 2.84375 -1.9375 C 2.550781 -2.101562 2.28125 -2.332031 2.03125 -2.625 C 1.789062 -2.925781 1.671875 -3.3125 1.671875 -3.78125 C 1.671875 -4.3125 1.921875 -4.800781 2.421875 -5.25 C 2.929688 -5.707031 3.703125 -6.023438 4.734375 -6.203125 C 3.753906 -6.671875 3.003906 -7.300781 2.484375 -8.09375 C 1.972656 -8.882812 1.71875 -9.695312 1.71875 -10.53125 C 1.71875 -11.507812 2.023438 -12.351562 2.640625 -13.0625 C 3.265625 -13.769531 4.109375 -14.304688 5.171875 -14.671875 C 6.242188 -15.035156 7.457031 -15.21875 8.8125 -15.21875 C 9.851562 -15.21875 10.703125 -15.109375 11.359375 -14.890625 C 12.015625 -14.679688 12.625 -14.398438 13.1875 -14.046875 C 13.40625 -14.140625 13.695312 -14.253906 14.0625 -14.390625 C 14.425781 -14.523438 14.820312 -14.675781 15.25 -14.84375 C 15.675781 -15.019531 16.09375 -15.191406 16.5 -15.359375 C 16.90625 -15.523438 17.269531 -15.675781 17.59375 -15.8125 L 17.578125 -12.546875 L 14.984375 -12.125 C 15.085938 -11.863281 15.164062 -11.582031 15.21875 -11.28125 C 15.28125 -10.976562 15.3125 -10.734375 15.3125 -10.546875 C 15.3125 -9.671875 15.054688 -8.851562 14.546875 -8.09375 C 14.046875 -7.34375 13.289062 -6.734375 12.28125 -6.265625 C 11.269531 -5.804688 10.019531 -5.578125 8.53125 -5.578125 C 8.34375 -5.578125 8.097656 -5.582031 7.796875 -5.59375 C 7.492188 -5.601562 7.242188 -5.617188 7.046875 -5.640625 C 6.472656 -5.609375 6.078125 -5.535156 5.859375 -5.421875 C 5.648438 -5.304688 5.546875 -5.171875 5.546875 -5.015625 C 5.546875 -4.785156 5.765625 -4.632812 6.203125 -4.5625 C 6.640625 -4.488281 7.296875 -4.421875 8.171875 -4.359375 C 8.484375 -4.335938 8.914062 -4.3125 9.46875 -4.28125 C 10.019531 -4.257812 10.628906 -4.222656 11.296875 -4.171875 C 13.128906 -4.046875 14.5 -3.59375 15.40625 -2.8125 C 16.3125 -2.039062 16.765625 -1.066406 16.765625 0.109375 C 16.765625 1.515625 16.097656 2.671875 14.765625 3.578125 C 13.441406 4.492188 11.441406 4.953125 8.765625 4.953125 Z M 9.4375 2.59375 C 10.613281 2.59375 11.453125 2.445312 11.953125 2.15625 C 12.460938 1.863281 12.71875 1.445312 12.71875 0.90625 C 12.71875 0.457031 12.523438 0.09375 12.140625 -0.1875 C 11.753906 -0.476562 11.1875 -0.648438 10.4375 -0.703125 L 7 -0.921875 C 6.5625 -0.941406 6.171875 -0.875 5.828125 -0.71875 C 5.484375 -0.570312 5.210938 -0.363281 5.015625 -0.09375 C 4.828125 0.175781 4.734375 0.46875 4.734375 0.78125 C 4.734375 1.40625 5.113281 1.863281 5.875 2.15625 C 6.644531 2.445312 7.832031 2.59375 9.4375 2.59375 Z M 8.640625 -7.953125 C 9.441406 -7.953125 10.085938 -8.171875 10.578125 -8.609375 C 11.066406 -9.046875 11.3125 -9.640625 11.3125 -10.390625 C 11.3125 -11.179688 11.066406 -11.8125 10.578125 -12.28125 C 10.085938 -12.75 9.441406 -12.984375 8.640625 -12.984375 C 7.847656 -12.984375 7.203125 -12.75 6.703125 -12.28125 C 6.203125 -11.8125 5.953125 -11.179688 5.953125 -10.390625 C 5.953125 -9.648438 6.191406 -9.054688 6.671875 -8.609375 C 7.148438 -8.171875 7.804688 -7.953125 8.640625 -7.953125 Z M 8.640625 -7.953125 "/></g></g></g></svg>