<svg xmlns="http://www.w3.org/2000/svg" xmlns:xlink="http://www.w3.org/1999/xlink" width="7232" zoomAndPan="magnify" viewBox="0 0 5424.75 2592.000001" height="3456" preserveAspectRatio="xMidYMid meet" version="1.0"><defs><clipPath id="dc3286023e"><path d="M 0.921875 0 L 5423.578125 0 L 5423.578125 2591 L 0.921875 2591 Z M 0.921875 0 " clip-rule="nonzero"/></clipPath><clipPath id="b83800bc4f"><path d="M 0.921875 1167.230469 L 1146.140625 1167.230469 L 1146.140625 2591 L 0.921875 2591 Z M 0.921875 1167.230469 " clip-rule="nonzero"/></clipPath><clipPath id="812c2ec072"><path d="M -197.417969 1167.230469 C -939.445312 1167.230469 -1540.976562 1768.761719 -1540.976562 2510.785156 C -1540.976562 3252.8125 -939.445312 3854.34375 -197.417969 3854.34375 C 544.609375 3854.34375 1146.140625 3252.8125 1146.140625 2510.785156 C 1146.140625 1768.761719 544.609375 1167.230469 -197.417969 1167.230469 " clip-rule="nonzero"/></clipPath><clipPath id="61e93f041a"><path d="M 0.921875 0 L 2004 0 L 2004 2494 L 0.921875 2494 Z M 0.921875 0 " clip-rule="nonzero"/></clipPath><clipPath id="cfa568e8bb"><path d="M 0.921875 0 L 1515.0625 0 L 1515.0625 1479.738281 L 0.921875 1479.738281 Z M 0.921875 0 " clip-rule="nonzero"/></clipPath><clipPath id="f12de75e08"><path d="M 4080.144531 0 L 5423.578125 0 L 5423.578125 1167.230469 L 4080.144531 1167.230469 Z M 4080.144531 0 " clip-rule="nonzero"/></clipPath><clipPath id="8c060d9efb"><path d="M 5423.703125 -1519.886719 C 4681.675781 -1519.886719 4080.144531 -918.355469 4080.144531 -176.328125 C 4080.144531 565.699219 4681.675781 1167.230469 5423.703125 1167.230469 C 6165.730469 1167.230469 6767.261719 565.699219 6767.261719 -176.328125 C 6767.261719 -918.355469 6165.730469 -1519.886719 5423.703125 -1519.886719 " clip-rule="nonzero"/></clipPath><clipPath id="9f16c1ebc9"><path d="M 3248 181 L 5413 181 L 5413 2591 L 3248 2591 Z M 3248 181 " clip-rule="nonzero"/></clipPath><clipPath id="063212dae2"><path d="M 3737.371094 1195.132812 L 5423.578125 1195.132812 L 5423.578125 2591 L 3737.371094 2591 Z M 3737.371094 1195.132812 " clip-rule="nonzero"/></clipPath></defs><g clip-path="url(#dc3286023e)"><path fill="#ffffff" d="M 0.921875 0 L 5423.828125 0 L 5423.828125 2598.617188 L 0.921875 2598.617188 Z M 0.921875 0 " fill-opacity="1" fill-rule="nonzero"/><path fill="#ffffff" d="M 0.921875 0 L 5423.828125 0 L 5423.828125 2591.121094 L 0.921875 2591.121094 Z M 0.921875 0 " fill-opacity="1" fill-rule="nonzero"/><path fill="#ffffff" d="M 0.921875 0 L 5423.828125 0 L 5423.828125 2591.121094 L 0.921875 2591.121094 Z M 0.921875 0 " fill-opacity="1" fill-rule="nonzero"/></g><g clip-path="url(#b83800bc4f)"><g clip-path="url(#812c2ec072)"><path fill="#ff8787" d="M -1540.976562 1167.230469 L 1146.140625 1167.230469 L 1146.140625 3854.34375 L -1540.976562 3854.34375 Z M -1540.976562 1167.230469 " fill-opacity="1" fill-rule="nonzero"/></g></g><g clip-path="url(#61e93f041a)"><path fill="#ff7b6c" d="M -156.851562 2493.773438 C -160.71875 2488.117188 -160.027344 2483.121094 -160.027344 2478.273438 C -160.054688 1647.128906 -160.054688 815.988281 -160.027344 -15.15625 C -160.027344 -37.84375 -159.96875 -37.84375 -137.335938 -37.84375 C 571.535156 -37.84375 1280.375 -37.84375 1989.246094 -37.757812 C 1993.980469 -37.757812 2000.820312 -40.183594 2002.957031 -36.171875 C 2005.410156 -31.609375 2000.214844 -26.558594 1997.242188 -22.429688 C 1978.996094 2.976562 1964.476562 30.71875 1947.585938 56.957031 C 1931.160156 82.507812 1915.746094 108.863281 1898.164062 133.601562 C 1885.867188 150.894531 1873.566406 168.273438 1859.019531 184.152344 C 1840.570312 204.273438 1825.011719 226.992188 1807.949219 248.410156 C 1784.941406 277.308594 1757.257812 301.527344 1729.542969 325.632812 C 1714.847656 338.421875 1700.296875 351.671875 1684.074219 362.296875 C 1659.679688 378.289062 1635.488281 394.6875 1610.226562 409.410156 C 1580.347656 426.816406 1549.402344 442.347656 1517.820312 455.828125 C 1486.527344 469.195312 1455.234375 482.707031 1423.1875 494.570312 C 1378.125 511.253906 1334.820312 532.589844 1289.960938 549.851562 C 1263.71875 559.957031 1237.648438 570.867188 1210.945312 579.558594 C 1182.914062 588.707031 1157.046875 602.796875 1129.277344 611.917969 C 1102.71875 620.636719 1078.351562 634.378906 1052.253906 643.671875 C 1016.113281 656.550781 981.46875 672.886719 946.421875 688.042969 C 911.375 703.199219 876.761719 719.742188 842.785156 737.582031 C 819.777344 749.648438 797.71875 763.128906 775.605469 776.410156 C 751.269531 791.046875 728.058594 807.644531 705.6875 825.457031 C 671.882812 852.363281 639.375 880.710938 608.890625 911.195312 C 586.257812 933.828125 565.097656 957.960938 544.484375 982.5 C 516.683594 1015.609375 493.214844 1051.839844 471.851562 1089.109375 C 450.71875 1125.972656 432.992188 1164.773438 418.820312 1205.128906 C 405.28125 1243.726562 392.78125 1282.726562 380.222656 1321.613281 C 372.601562 1345.285156 365.960938 1369.679688 360.246094 1394.101562 C 358.050781 1403.539062 354.039062 1412.578125 351.730469 1422.015625 C 340.84375 1466.703125 333.453125 1512.171875 320.925781 1556.511719 C 316.769531 1571.207031 315.441406 1586.707031 311.601562 1601.519531 C 305.597656 1624.699219 299.535156 1647.96875 291.683594 1670.570312 C 282.558594 1696.839844 277.679688 1724.238281 268.242188 1750.390625 C 251.699219 1796.203125 239.632812 1843.460938 222.859375 1889.304688 C 212.4375 1917.769531 199.820312 1945.425781 190.554688 1974.207031 C 179.007812 2010.144531 162.292969 2043.804688 146.847656 2077.929688 C 132.152344 2110.347656 116.101562 2142.246094 98.984375 2173.625 C 74.761719 2218.027344 45.113281 2258.585938 15.351562 2299.117188 C 1.40625 2318.082031 -14.585938 2335.546875 -28.472656 2354.570312 C -65.796875 2405.640625 -111.640625 2448.625 -156.851562 2493.773438 Z M -156.851562 2493.773438 " fill-opacity="1" fill-rule="nonzero"/></g><g clip-path="url(#cfa568e8bb)"><path fill="#ff9e91" d="M -195.855469 -35.445312 L 1515.0625 -35.445312 C 1488.097656 349.464844 1203.761719 266.109375 1032.179688 376.433594 C 858.148438 486.757812 951.292969 751.539062 730.6875 923.15625 C 512.53125 1097.222656 355.65625 1050.640625 228.195312 1097.222656 C 100.734375 1143.804688 76.222656 1317.871094 -7.117188 1406.132812 C -78.199219 1479.683594 -195.855469 1479.683594 -195.855469 1479.683594 Z M -195.855469 -35.445312 " fill-opacity="1" fill-rule="nonzero"/></g><g clip-path="url(#f12de75e08)"><g clip-path="url(#8c060d9efb)"><path fill="#ff8787" d="M 4080.144531 -1519.886719 L 6767.261719 -1519.886719 L 6767.261719 1167.230469 L 4080.144531 1167.230469 Z M 4080.144531 -1519.886719 " fill-opacity="1" fill-rule="nonzero"/></g></g><g clip-path="url(#9f16c1ebc9)"><path fill="#ff7b6c" d="M 5409.277344 181.105469 C 5413.144531 186.761719 5412.453125 191.757812 5412.453125 196.605469 C 5412.480469 1027.75 5412.480469 1858.890625 5412.453125 2690.035156 C 5412.453125 2712.722656 5412.394531 2712.722656 5389.761719 2712.722656 C 4680.894531 2712.722656 3972.054688 2712.722656 3263.183594 2712.636719 C 3258.449219 2712.636719 3251.605469 2715.0625 3249.46875 2711.050781 C 3247.015625 2706.488281 3252.214844 2701.4375 3255.1875 2697.308594 C 3273.429688 2671.90625 3287.953125 2644.160156 3304.839844 2617.921875 C 3321.265625 2592.371094 3336.683594 2566.015625 3354.265625 2541.277344 C 3366.5625 2523.984375 3378.859375 2506.605469 3393.410156 2490.726562 C 3411.855469 2470.605469 3427.417969 2447.886719 3444.476562 2426.46875 C 3467.488281 2397.570312 3495.171875 2373.351562 3522.886719 2349.246094 C 3537.578125 2336.457031 3552.128906 2323.207031 3568.351562 2312.582031 C 3592.746094 2296.589844 3616.941406 2280.191406 3642.199219 2265.46875 C 3672.078125 2248.0625 3703.027344 2232.53125 3734.609375 2219.050781 C 3765.902344 2205.683594 3797.195312 2192.175781 3829.238281 2180.308594 C 3874.304688 2163.625 3917.605469 2142.289062 3962.46875 2125.027344 C 3988.710938 2114.921875 4014.777344 2104.011719 4041.480469 2095.320312 C 4069.511719 2086.171875 4095.378906 2072.082031 4123.152344 2062.960938 C 4149.710938 2054.242188 4174.074219 2040.5 4200.171875 2031.207031 C 4236.316406 2018.332031 4270.957031 2001.992188 4306.003906 1986.835938 C 4341.050781 1971.679688 4375.664062 1955.136719 4409.644531 1937.296875 C 4432.652344 1925.230469 4454.707031 1911.75 4476.820312 1898.46875 C 4501.15625 1883.832031 4524.367188 1867.234375 4546.742188 1849.421875 C 4580.546875 1822.519531 4613.050781 1794.167969 4643.535156 1763.683594 C 4666.171875 1741.050781 4687.332031 1716.917969 4707.941406 1692.378906 C 4735.742188 1659.269531 4759.214844 1623.039062 4780.578125 1585.769531 C 4801.707031 1548.90625 4819.433594 1510.105469 4833.609375 1469.75 C 4847.148438 1431.152344 4859.648438 1392.152344 4872.207031 1353.265625 C 4879.828125 1329.59375 4886.464844 1305.199219 4892.183594 1280.777344 C 4894.375 1271.339844 4898.390625 1262.304688 4900.699219 1252.863281 C 4911.582031 1208.175781 4918.972656 1162.707031 4931.5 1118.367188 C 4935.660156 1103.671875 4936.988281 1088.171875 4940.828125 1073.359375 C 4946.832031 1050.179688 4952.894531 1026.910156 4960.746094 1004.308594 C 4969.867188 978.039062 4974.746094 950.640625 4984.1875 924.488281 C 5000.730469 878.675781 5012.796875 831.417969 5029.570312 785.574219 C 5039.988281 757.109375 5052.605469 729.453125 5061.871094 700.671875 C 5073.421875 664.734375 5090.136719 631.074219 5105.578125 596.949219 C 5120.273438 564.53125 5136.324219 532.632812 5153.445312 501.253906 C 5177.664062 456.851562 5207.3125 416.292969 5237.078125 375.761719 C 5251.019531 356.796875 5267.011719 339.332031 5280.898438 320.308594 C 5318.226562 269.238281 5364.070312 226.253906 5409.277344 181.105469 Z M 5409.277344 181.105469 " fill-opacity="1" fill-rule="nonzero"/></g><g clip-path="url(#063212dae2)"><path fill="#ff9e91" d="M 5448.289062 2710.316406 L 3737.371094 2710.316406 C 3764.332031 2325.40625 4048.667969 2408.761719 4220.25 2298.4375 C 4394.285156 2188.113281 4301.140625 1923.332031 4521.746094 1751.714844 C 4739.898438 1577.648438 4896.773438 1624.230469 5024.234375 1577.648438 C 5151.695312 1531.066406 5176.207031 1357 5259.546875 1268.738281 C 5330.632812 1195.1875 5448.289062 1195.1875 5448.289062 1195.1875 Z M 5448.289062 2710.316406 " fill-opacity="1" fill-rule="nonzero"/></g></svg>