<svg xmlns="http://www.w3.org/2000/svg" xmlns:xlink="http://www.w3.org/1999/xlink" width="1440" zoomAndPan="magnify" viewBox="0 0 1080 809.999993" height="1080" preserveAspectRatio="xMidYMid meet" version="1.0"><defs><clipPath id="eb93d8c40e"><path d="M 0 497.566406 L 179.332031 497.566406 L 179.332031 810 L 0 810 Z M 0 497.566406 " clip-rule="nonzero"/></clipPath><clipPath id="f23315abd0"><path d="M -88.25 497.566406 C -236.035156 497.566406 -355.835938 617.367188 -355.835938 765.152344 C -355.835938 912.933594 -236.035156 1032.734375 -88.25 1032.734375 C 59.53125 1032.734375 179.332031 912.933594 179.332031 765.152344 C 179.332031 617.367188 59.53125 497.566406 -88.25 497.566406 " clip-rule="nonzero"/></clipPath><clipPath id="0fad5ec114"><path d="M 0 0 L 382 0 L 382 452.300781 L 0 452.300781 Z M 0 0 " clip-rule="nonzero"/></clipPath><clipPath id="020b907556"><path d="M 0 0 L 284.671875 0 L 284.671875 250.425781 L 0 250.425781 Z M 0 0 " clip-rule="nonzero"/></clipPath><clipPath id="7ef25234db"><path d="M 878.042969 0 L 1080 0 L 1080 325.066406 L 878.042969 325.066406 Z M 878.042969 0 " clip-rule="nonzero"/></clipPath><clipPath id="57a01343c2"><path d="M 1145.625 -210.097656 C 997.84375 -210.097656 878.042969 -90.296875 878.042969 57.484375 C 878.042969 205.265625 997.84375 325.066406 1145.625 325.066406 C 1293.40625 325.066406 1413.207031 205.265625 1413.207031 57.484375 C 1413.207031 -90.296875 1293.40625 -210.097656 1145.625 -210.097656 " clip-rule="nonzero"/></clipPath><clipPath id="9aea6edf3e"><path d="M 682.289062 340.617188 L 1080 340.617188 L 1080 810 L 682.289062 810 Z M 682.289062 340.617188 " clip-rule="nonzero"/></clipPath><clipPath id="170ece58e4"><path d="M 779.777344 542.5 L 1080 542.5 L 1080 810 L 779.777344 810 Z M 779.777344 542.5 " clip-rule="nonzero"/></clipPath></defs><rect x="-108" width="1296" fill="#ffffff" y="-80.999999" height="971.999992" fill-opacity="1"/><rect x="-108" width="1296" fill="#ffffff" y="-80.999999" height="971.999992" fill-opacity="1"/><rect x="-108" width="1296" fill="#ffffff" y="-80.999999" height="971.999992" fill-opacity="1"/><g clip-path="url(#eb93d8c40e)"><g clip-path="url(#f23315abd0)"><path fill="#ff8787" d="M -355.835938 497.566406 L 179.332031 497.566406 L 179.332031 1032.734375 L -355.835938 1032.734375 Z M -355.835938 497.566406 " fill-opacity="1" fill-rule="nonzero"/></g></g><g clip-path="url(#0fad5ec114)"><path fill="#ff7b6c" d="M -48.296875 452.144531 C -49.066406 451.015625 -48.929688 450.023438 -48.929688 449.058594 C -48.933594 283.605469 -48.933594 118.152344 -48.929688 -47.300781 C -48.929688 -51.820312 -48.917969 -51.820312 -44.410156 -51.820312 C 96.722656 -51.820312 237.851562 -51.820312 378.988281 -51.800781 C 379.929688 -51.800781 381.292969 -52.285156 381.71875 -51.484375 C 382.207031 -50.578125 381.171875 -49.570312 380.578125 -48.75 C 376.945312 -43.691406 374.054688 -38.171875 370.691406 -32.945312 C 367.421875 -27.859375 364.351562 -22.613281 360.851562 -17.6875 C 358.40625 -14.246094 355.957031 -10.785156 353.058594 -7.625 C 349.386719 -3.621094 346.289062 0.902344 342.890625 5.164062 C 338.308594 10.917969 332.796875 15.738281 327.28125 20.539062 C 324.355469 23.082031 321.457031 25.722656 318.226562 27.835938 C 313.371094 31.019531 308.554688 34.285156 303.527344 37.214844 C 297.578125 40.679688 291.414062 43.773438 285.128906 46.457031 C 278.898438 49.117188 272.667969 51.804688 266.285156 54.167969 C 257.3125 57.488281 248.691406 61.734375 239.761719 65.171875 C 234.535156 67.183594 229.34375 69.355469 224.027344 71.085938 C 218.449219 72.90625 213.296875 75.710938 207.769531 77.527344 C 202.480469 79.261719 197.628906 82 192.433594 83.847656 C 185.238281 86.414062 178.339844 89.664062 171.363281 92.683594 C 164.386719 95.699219 157.492188 98.992188 150.730469 102.542969 C 146.148438 104.945312 141.757812 107.628906 137.355469 110.273438 C 132.507812 113.1875 127.886719 116.492188 123.433594 120.035156 C 116.703125 125.390625 110.230469 131.035156 104.160156 137.105469 C 99.65625 141.609375 95.441406 146.414062 91.335938 151.296875 C 85.800781 157.890625 81.128906 165.101562 76.875 172.519531 C 72.667969 179.859375 69.140625 187.582031 66.316406 195.617188 C 63.621094 203.300781 61.132812 211.0625 58.632812 218.804688 C 57.117188 223.515625 55.792969 228.371094 54.65625 233.234375 C 54.21875 235.113281 53.421875 236.914062 52.960938 238.792969 C 50.792969 247.6875 49.320312 256.738281 46.828125 265.566406 C 46 268.488281 45.734375 271.574219 44.972656 274.523438 C 43.773438 279.140625 42.566406 283.769531 41.003906 288.269531 C 39.1875 293.5 38.21875 298.953125 36.335938 304.160156 C 33.042969 313.28125 30.640625 322.6875 27.300781 331.8125 C 25.226562 337.480469 22.714844 342.984375 20.871094 348.714844 C 18.570312 355.867188 15.242188 362.570312 12.167969 369.363281 C 9.242188 375.816406 6.046875 382.164062 2.640625 388.410156 C -2.183594 397.25 -8.085938 405.324219 -14.011719 413.394531 C -16.789062 417.167969 -19.972656 420.644531 -22.738281 424.433594 C -30.167969 434.597656 -39.296875 443.15625 -48.296875 452.144531 Z M -48.296875 452.144531 " fill-opacity="1" fill-rule="nonzero"/></g><g clip-path="url(#020b907556)"><path fill="#ff9e91" d="M -55.824219 -51.0625 L 284.671875 -51.0625 C 279.308594 25.527344 222.71875 8.941406 188.574219 30.894531 C 153.9375 52.84375 172.476562 105.53125 128.570312 139.679688 C 85.15625 174.3125 53.933594 165.046875 28.566406 174.3125 C 3.199219 183.582031 -1.679688 218.21875 -18.265625 235.777344 C -32.410156 250.414062 -55.824219 250.414062 -55.824219 250.414062 Z M -55.824219 -51.0625 " fill-opacity="1" fill-rule="nonzero"/></g><g clip-path="url(#7ef25234db)"><g clip-path="url(#57a01343c2)"><path fill="#ff8787" d="M 878.042969 -210.097656 L 1413.207031 -210.097656 L 1413.207031 325.066406 L 878.042969 325.066406 Z M 878.042969 -210.097656 " fill-opacity="1" fill-rule="nonzero"/></g></g><g clip-path="url(#9aea6edf3e)"><path fill="#ff7b6c" d="M 1112.753906 340.777344 C 1113.523438 341.902344 1113.386719 342.898438 1113.386719 343.863281 C 1113.390625 509.316406 1113.390625 674.769531 1113.386719 840.222656 C 1113.386719 844.738281 1113.375 844.738281 1108.867188 844.738281 C 967.734375 844.738281 826.605469 844.738281 685.46875 844.722656 C 684.527344 844.722656 683.164062 845.203125 682.738281 844.40625 C 682.25 843.496094 683.285156 842.492188 683.878906 841.671875 C 687.507812 836.613281 690.402344 831.089844 693.761719 825.867188 C 697.035156 820.78125 700.101562 815.535156 703.601562 810.609375 C 706.050781 807.167969 708.5 803.707031 711.398438 800.546875 C 715.070312 796.542969 718.167969 792.019531 721.566406 787.753906 C 726.144531 782.003906 731.65625 777.179688 737.175781 772.382812 C 740.101562 769.835938 742.996094 767.199219 746.226562 765.085938 C 751.085938 761.902344 755.902344 758.636719 760.929688 755.707031 C 766.878906 752.242188 773.042969 749.148438 779.328125 746.464844 C 785.558594 743.804688 791.789062 741.113281 798.171875 738.753906 C 807.140625 735.429688 815.765625 731.183594 824.695312 727.746094 C 829.921875 725.738281 835.109375 723.5625 840.425781 721.835938 C 846.007812 720.011719 851.15625 717.207031 856.6875 715.390625 C 861.976562 713.65625 866.828125 710.921875 872.023438 709.070312 C 879.21875 706.507812 886.117188 703.253906 893.09375 700.238281 C 900.070312 697.222656 906.960938 693.929688 913.726562 690.378906 C 918.308594 687.976562 922.699219 685.292969 927.101562 682.648438 C 931.949219 679.734375 936.570312 676.429688 941.023438 672.882812 C 947.753906 667.527344 954.226562 661.886719 960.296875 655.816406 C 964.800781 651.3125 969.015625 646.507812 973.117188 641.621094 C 978.652344 635.03125 983.328125 627.820312 987.578125 620.398438 C 991.785156 613.0625 995.316406 605.335938 998.136719 597.304688 C 1000.832031 589.621094 1003.324219 581.855469 1005.824219 574.117188 C 1007.339844 569.402344 1008.664062 564.546875 1009.800781 559.6875 C 1010.238281 557.808594 1011.035156 556.007812 1011.496094 554.128906 C 1013.664062 545.234375 1015.132812 536.183594 1017.628906 527.355469 C 1018.457031 524.429688 1018.722656 521.34375 1019.484375 518.394531 C 1020.679688 513.78125 1021.886719 509.148438 1023.449219 504.648438 C 1025.265625 499.421875 1026.238281 493.96875 1028.117188 488.761719 C 1031.410156 479.640625 1033.8125 470.234375 1037.152344 461.109375 C 1039.230469 455.441406 1041.742188 449.9375 1043.585938 444.207031 C 1045.882812 437.050781 1049.210938 430.351562 1052.289062 423.558594 C 1055.214844 417.105469 1058.410156 410.753906 1061.816406 404.507812 C 1066.640625 395.671875 1072.542969 387.597656 1078.46875 379.527344 C 1081.246094 375.753906 1084.429688 372.277344 1087.191406 368.488281 C 1094.625 358.324219 1103.753906 349.765625 1112.753906 340.777344 Z M 1112.753906 340.777344 " fill-opacity="1" fill-rule="nonzero"/></g><g clip-path="url(#170ece58e4)"><path fill="#ff9e91" d="M 1120.277344 843.988281 L 779.777344 843.988281 C 785.140625 767.398438 841.730469 783.984375 875.875 762.035156 C 910.511719 740.082031 891.976562 687.398438 935.878906 653.25 C 979.296875 618.613281 1010.515625 627.882812 1035.882812 618.613281 C 1061.25 609.34375 1066.128906 574.710938 1082.714844 557.148438 C 1096.859375 542.511719 1120.277344 542.511719 1120.277344 542.511719 Z M 1120.277344 843.988281 " fill-opacity="1" fill-rule="nonzero"/></g></svg>